<svg width="306" height="117" viewBox="0 0 306 117" fill="none" xmlns="http://www.w3.org/2000/svg">
<path d="M78.9935 29.9775H49.2042C47.2481 29.9775 45.6624 31.5668 45.6624 33.5272V33.5417C45.6624 35.5021 47.2481 37.0914 49.2042 37.0914H78.9935C80.9496 37.0914 82.5354 35.5021 82.5354 33.5417V33.5272C82.5354 31.5668 80.9496 29.9775 78.9935 29.9775Z" fill="#DDA05D" stroke="#DDA05D" stroke-width="0.5" stroke-miterlimit="10"/>
<path d="M80.2172 40.0783C81.3724 40.0875 82.4866 39.6503 83.3285 38.8576C84.1704 38.0649 84.6753 36.9776 84.7382 35.8216V45.8069C84.7382 47.2893 84.1516 48.7112 83.1071 49.7607C82.0625 50.8103 80.6453 51.4018 79.1662 51.4057H25.39V45.6338C25.3976 44.1602 25.986 42.7494 27.0271 41.7088C28.0681 40.6682 29.4773 40.0821 30.9476 40.0783H80.2172Z" fill="#A1CE78" stroke="#A1CE78" stroke-width="0.25" stroke-miterlimit="10"/>
<path d="M80.2174 68.7068C82.5642 68.7068 84.7383 68.2451 84.7383 65.9075V74.4498C84.7383 75.9309 84.1512 77.3513 83.1063 78.3985C82.0613 79.4458 80.6441 80.0341 79.1663 80.0341H30.9477C29.4699 80.0341 28.0527 79.4458 27.0077 78.3985C25.9628 77.3513 25.3757 75.9309 25.3757 74.4498V68.678H80.2174V68.7068Z" fill="#5F89BF" stroke="#5F89BF" stroke-width="0.25" stroke-miterlimit="10"/>
<path d="M80.2172 54.3926C82.5641 54.3926 84.7382 53.9308 84.7382 51.5788V60.7561C84.7382 62.0687 84.2179 63.3276 83.2917 64.2558C82.3656 65.184 81.1095 65.7055 79.7997 65.7055H25.39V54.3926H80.2172Z" fill="#5CB8B0" stroke="#5CB8B0" stroke-width="0.25" stroke-miterlimit="10"/>
<path d="M32.6034 54.3926H22.4673C19.2946 54.3926 16.7225 56.9703 16.7225 60.15C16.7225 63.3298 19.2946 65.9075 22.4673 65.9075H32.6034C35.7762 65.9075 38.3482 63.3298 38.3482 60.15C38.3482 56.9703 35.7762 54.3926 32.6034 54.3926Z" stroke="white" stroke-width="1.2" stroke-miterlimit="10"/>
<path d="M31.4516 62.3145C32.6443 62.3145 33.6112 61.3454 33.6112 60.15C33.6112 58.9547 32.6443 57.9856 31.4516 57.9856C30.2588 57.9856 29.2919 58.9547 29.2919 60.15C29.2919 61.3454 30.2588 62.3145 31.4516 62.3145Z" fill="white"/>
<path d="M98.9778 74.3633V37.38H111.936C116.414 37.38 119.797 38.2458 122.115 39.9629C123.268 40.8381 124.188 41.9846 124.793 43.3009C125.398 44.6172 125.67 46.0628 125.585 47.5096C125.6 49.2113 125.098 50.8771 124.145 52.2859C123.193 53.6917 121.815 54.7538 120.215 55.3161C121.995 55.7208 123.576 56.7429 124.678 58.202C125.801 59.7223 126.38 61.5781 126.319 63.4689C126.418 64.973 126.166 66.4794 125.584 67.8693C125.001 69.2591 124.105 70.4943 122.965 71.4773C120.704 73.3099 117.479 74.2334 113.304 74.2767L98.9778 74.3633ZM106.565 52.9063H112.181C116.02 52.8294 117.94 51.295 117.94 48.3033C118.008 47.6302 117.912 46.9507 117.661 46.3226C117.411 45.6945 117.012 45.1364 116.5 44.6959C115.124 43.8519 113.515 43.4679 111.907 43.5992H106.594L106.565 52.9063ZM106.565 58.2742V68.2451H113.016C114.521 68.3392 116.01 67.8829 117.206 66.9609C117.694 66.5171 118.077 65.9691 118.326 65.3573C118.576 64.7454 118.685 64.0853 118.645 63.4256C118.645 60.049 116.903 58.3319 113.419 58.2742H106.565Z" fill="#0B0C2A"/>
<path d="M147.974 71.4773C147.068 72.573 145.919 73.442 144.62 74.0156C143.32 74.5891 141.905 74.8514 140.487 74.7817C139.25 74.8668 138.009 74.684 136.849 74.2458C135.689 73.8075 134.636 73.1242 133.763 72.2421C132.082 70.1452 131.24 67.4959 131.402 64.8108V46.9468H138.716V64.6953C138.716 67.5813 140.012 69.0243 142.603 69.0243C143.613 69.1331 144.633 68.9472 145.539 68.489C146.446 68.0308 147.202 67.3197 147.715 66.4413V46.9468H155.058V74.3632H148.175L147.974 71.4773Z" fill="#0B0C2A"/>
<path d="M159.435 60.3953C159.247 56.7607 160.259 53.1653 162.314 50.1647C163.215 48.94 164.401 47.9542 165.768 47.2928C167.136 46.6315 168.644 46.3146 170.161 46.3697C171.416 46.3389 172.661 46.5914 173.805 47.1084C174.949 47.6255 175.962 48.3938 176.77 49.3566V35.4031H184.113V74.3633H177.504L177.158 71.4773C176.336 72.5624 175.27 73.4376 174.047 74.0319C172.823 74.6261 171.477 74.9226 170.118 74.8972C168.612 74.9397 167.118 74.6138 165.766 73.9475C164.413 73.2812 163.244 72.2947 162.357 71.0733C160.226 67.9383 159.198 64.1813 159.435 60.3953ZM166.749 60.9437C166.625 63.0032 167.089 65.0555 168.088 66.8598C168.5 67.5298 169.086 68.0746 169.783 68.4356C170.481 68.7966 171.264 68.9602 172.047 68.9089C173.043 68.9752 174.035 68.7341 174.889 68.2181C175.744 67.7021 176.42 66.936 176.827 66.0229V55.2007C176.432 54.291 175.767 53.5256 174.921 53.0091C174.076 52.4926 173.093 52.2501 172.105 52.3147C168.544 52.3243 166.758 55.2007 166.749 60.9437Z" fill="#0B0C2A"/>
<path d="M188.72 60.3953C188.556 56.7867 189.611 53.2281 191.715 50.2945C192.656 49.0489 193.883 48.0486 195.291 47.3781C196.699 46.7075 198.248 46.3864 199.806 46.4418C201.134 46.3726 202.46 46.6159 203.678 47.152C204.895 47.6882 205.971 48.5025 206.818 49.5298L207.12 46.9469H213.801V73.3965C213.86 75.6007 213.296 77.7768 212.174 79.6734C211.076 81.4494 209.478 82.8602 207.581 83.7281C205.402 84.7144 203.032 85.2071 200.641 85.1711C198.626 85.1687 196.633 84.7563 194.781 83.959C193.098 83.3168 191.61 82.2478 190.462 80.8566L193.702 76.3834C194.516 77.3509 195.533 78.1276 196.68 78.6586C197.827 79.1897 199.076 79.4622 200.339 79.4569C201.992 79.557 203.618 78.9967 204.86 77.8985C205.424 77.3141 205.859 76.6183 206.14 75.8555C206.42 75.0927 206.538 74.2798 206.487 73.4686V72.0256C205.658 72.9713 204.63 73.7208 203.478 74.2199C202.325 74.719 201.076 74.9552 199.821 74.9116C198.28 74.9503 196.752 74.6195 195.365 73.9469C193.977 73.2742 192.77 72.2791 191.844 71.0444C189.684 68.0762 188.606 64.4543 188.792 60.7849L188.72 60.3953ZM196.034 60.9436C195.919 62.9694 196.421 64.9825 197.474 66.7155C197.919 67.3884 198.528 67.9363 199.244 68.3075C199.959 68.6787 200.758 68.8608 201.563 68.8367C202.517 68.9113 203.472 68.7154 204.32 68.2714C205.168 67.8274 205.874 67.1532 206.357 66.3259V54.7822C205.879 53.963 205.183 53.2939 204.346 52.8503C203.509 52.4067 202.565 52.2062 201.62 52.2714C200.804 52.2473 199.995 52.4321 199.269 52.8083C198.544 53.1844 197.926 53.7396 197.474 54.4214C196.356 56.403 195.854 58.6743 196.034 60.9436Z" fill="#0B0C2A"/>
<path d="M219.315 39.732C219.3 39.2272 219.39 38.7246 219.581 38.2572C219.772 37.7897 220.059 37.3679 220.424 37.0192C221.267 36.3289 222.323 35.9518 223.412 35.9518C224.501 35.9518 225.556 36.3289 226.399 37.0192C226.757 37.3759 227.04 37.7998 227.234 38.2665C227.427 38.7333 227.527 39.2338 227.527 39.7392C227.527 40.2447 227.427 40.7452 227.234 41.212C227.04 41.6787 226.757 42.1026 226.399 42.4592C225.562 43.1499 224.511 43.5276 223.426 43.5276C222.341 43.5276 221.29 43.1499 220.453 42.4592C220.08 42.1121 219.786 41.6892 219.59 41.2188C219.394 40.7485 219.3 40.2416 219.315 39.732ZM227.09 74.3633H219.747V46.9469H227.09V74.3633Z" fill="#5F89BF" stroke="#5F89BF" stroke-width="0.25" stroke-miterlimit="10"/>
<path d="M235.11 74.3633V52.2426H231.079V46.9469H235.153V44.5371C235.064 43.2155 235.254 41.8898 235.71 40.6466C236.167 39.4034 236.88 38.2707 237.802 37.3223C238.808 36.4302 239.979 35.7455 241.249 35.3073C242.519 34.869 243.862 34.6859 245.203 34.7682C246.456 34.8025 247.701 34.9718 248.918 35.2733L248.846 40.9586C248.114 40.7887 247.365 40.7112 246.614 40.7277C243.864 40.7277 242.496 42.0264 242.496 44.6093V46.9469H247.939V52.3147H242.453V74.3633H235.11Z" fill="#5F89BF" stroke="#5F89BF" stroke-width="0.25" stroke-miterlimit="10"/>
<path d="M261.919 63.945L266.972 46.9468H274.819L263.805 78.6921L263.2 80.1351C262.583 81.7683 261.471 83.1662 260.019 84.1319C258.567 85.0975 256.85 85.5821 255.109 85.5174C254.012 85.5129 252.921 85.3526 251.869 85.0412V79.3703H252.978C254.048 79.4453 255.118 79.2257 256.073 78.7354C256.828 78.2312 257.396 77.4903 257.686 76.6287L258.55 74.3777L248.961 46.9468H256.822L261.919 63.945Z" fill="#5F89BF" stroke="#5F89BF" stroke-width="0.25" stroke-miterlimit="10"/>
</svg>
